# xmcd
#
# Track frame offsets:
#	150
#	15295
#	28761
#	43941
#	57023
#	72279
#	85445
#	102423
#	117410
#	128761
#	143374
#	160901
#	178378
#	191718
#	206105
#	221908
#	234270
#	247325
#
# Disc length: 3480 seconds
#
# Revision: 1
# Processed by: cddbd v1.5.2PL0 Copyright (c) Steve Scherf et al.
# Submitted via: EasyCDDAExtractor 16.1.0.1
#
DISCID=0d0d9612
DTITLE=Gilbeto and Gilmar - Show 30 Anos ao Vivo
DYEAR=1900
DGENRE=Country
TTITLE0=Tadim Tadaim
TTITLE1=Só Mais Uma Vez
TTITLE2=Pount-Porri 1
TTITLE3=Música Da Saudade
TTITLE4=Pout-Porri 2
TTITLE5=Capa De Revista
TTITLE6=Ta Ruim Mais Tá Bão
TTITLE7=Luz Do Amanhecer
TTITLE8=Assino Com X
TTITLE9=Mais Que Paixão
TTITLE10=Pout-Porri 3
TTITLE11=Praia Da Solidão
TTITLE12=Paixão
TTITLE13=Palavras De Amor
TTITLE14=Quebrando Tudo
TTITLE15=Fome De Amor
TTITLE16=Tá Embolado O Meio De Campo
TTITLE17=Arrepia Arrepia
EXTD=
EXTT0=
EXTT1=
EXTT2=
EXTT3=
EXTT4=
EXTT5=
EXTT6=
EXTT7=
EXTT8=
EXTT9=
EXTT10=
EXTT11=
EXTT12=
EXTT13=
EXTT14=
EXTT15=
EXTT16=
EXTT17=
PLAYORDER=
